<?xml version="1.0" standalone="no"?>
<!DOCTYPE svg PUBLIC "-//W3C//DTD SVG 20010904//EN"
 "http://www.w3.org/TR/2001/REC-SVG-20010904/DTD/svg10.dtd">
<svg version="1.0" xmlns="http://www.w3.org/2000/svg"
 width="512.000000pt" height="512.000000pt" viewBox="0 0 512.000000 512.000000"
 preserveAspectRatio="xMidYMid meet">
<metadata>
Created by potrace 1.14, written by Peter Selinger 2001-2017
</metadata>
<g transform="translate(0.000000,512.000000) scale(0.100000,-0.100000)"
fill="#000000" stroke="none">
<path d="M28 4788 c-26 -28 -29 -38 -25 -72 6 -44 42 -86 75 -89 l22 -1 0
-751 0 -750 -47 -41 c-44 -39 -48 -46 -48 -88 0 -99 93 -132 177 -64 148 122
348 212 553 252 73 14 328 16 375 3 8 -2 35 -9 60 -16 25 -7 65 -16 90 -20
l45 -6 6 -205 c6 -230 17 -277 86 -367 100 -131 195 -174 397 -178 153 -4 190
-10 234 -37 48 -29 71 -56 95 -108 19 -42 21 -66 22 -345 2 -328 6 -356 59
-439 136 -212 420 -239 594 -57 24 25 52 61 62 81 41 81 43 109 44 580 1 454
1 455 24 502 39 78 103 122 198 133 27 3 69 8 94 11 25 3 73 20 108 36 136 67
233 210 246 361 2 27 6 50 9 53 2 3 28 -9 56 -26 48 -28 79 -43 244 -119 82
-38 234 -94 371 -137 103 -33 380 -107 436 -118 14 -2 59 -11 100 -20 41 -8
89 -18 105 -21 17 -4 60 -9 97 -12 61 -5 69 -3 92 20 60 60 37 145 -46 171
-17 5 -18 50 -18 750 l0 746 45 41 c53 49 65 90 40 142 -12 26 -26 38 -48 43
-56 14 -77 6 -148 -56 -83 -71 -163 -127 -239 -165 -223 -113 -506 -155 -697
-105 -198 52 -399 43 -573 -25 -32 -12 -63 -19 -71 -15 -19 10 -128 47 -159
53 -89 20 -208 26 -293 16 -109 -13 -141 -20 -232 -51 -62 -21 -73 -23 -97
-11 -29 15 -151 47 -213 57 -50 8 -207 9 -260 1 -111 -17 -278 -78 -347 -127
l-28 -19 -108 57 c-114 62 -381 195 -472 237 -191 87 -300 133 -447 188 -143
53 -173 53 -212 3 l-20 -26 -88 25 c-48 14 -103 28 -120 32 -24 5 -33 12 -33
26 0 29 -27 77 -49 89 -11 5 -36 10 -56 10 -29 0 -44 -7 -67 -32z"/>
<path d="M3177 1268 c-14 -13 -57 -77 -97 -143 -40 -66 -96 -158 -125 -205
-77 -125 -87 -156 -86 -262 0 -90 41 -188 105 -252 31 -31 127 -85 171 -97 89
-25 209 -6 290 46 111 70 168 171 172 303 3 92 -15 154 -66 233 -15 24 -72
116 -125 204 -54 88 -108 168 -119 177 -32 25 -91 23 -120 -4z"/>
</g>
</svg>
